<?xml version="1.0" encoding="utf-8"?>
<svg version="1.0" id="Layer_1" xmlns="http://www.w3.org/2000/svg" xmlns:xlink="http://www.w3.org/1999/xlink" x="0px" y="0px"
	 viewBox="0 0 223 147" style="enable-background:new 0 0 223 147;" xml:space="preserve">
<style type="text/css">
	.st0{fill:#2777C6;}
	.st1{fill:none;}
</style>
<path d="M138.2,59.4v11.6c0,4-4.8,7.3-10.5,7.3c-5.7,0-10.5-3.3-10.5-7.3V59.6H113V71c0,6.4,6.6,11.6,14.7,11.6s14.7-5.2,14.7-11.6
	V59.4H138.2z"/>
<path d="M197.7,59.4v11.6c0,4-4.8,7.3-10.5,7.3s-10.5-3.3-10.5-7.3V59.6h-4.3V71c0,6.4,6.6,11.6,14.7,11.6S202,77.3,202,71V59.4
	H197.7z"/>
<path d="M149.9,82.6h-4.3V59.4h4.3v9.4c6.6-8.7,18.8-9.4,18.9-9.4l0.2,4.3C168.3,63.8,149.9,64.9,149.9,82.6z"/>
<path d="M106.2,59.4v3.5c-3-2.3-6.7-3.5-10.5-3.5C87.6,59.4,81,64.6,81,71s6.6,11.6,14.7,11.6c3.8,0.1,7.5-1.2,10.5-3.5v3.1
	c0,4-4.8,7.3-10.5,7.3c-4.5,0-8.5-2.2-9.9-5.1l-4.1,1.3c1.9,4.7,7.5,8.1,14,8.1c8,0,14.4-5,14.7-11.2l0,0V59.4H106.2z M95.7,78.3
	C90,78.3,85.3,75,85.3,71s4.8-7.3,10.5-7.3s10.5,3.3,10.5,7.3S101.4,78.3,95.7,78.3z"/>
<path d="M54.6,77.3c2,0.5,4,1.2,5.9,2.1c1.8,0.9,3.5,1.9,5.1,3.2c1.6,1.2,3.1,2.6,4.4,4.1c1.4,1.5,2.5,3.1,3.5,4.9H66
	c-1.1-1.4-2.4-2.6-3.8-3.7c-1.4-1.1-2.9-2-4.5-2.8c-1.6-0.8-3.3-1.4-5-1.8c-1.8-0.4-3.6-0.7-5.5-0.7c-1.9,0-3.7,0.2-5.6,0.7
	c-1.7,0.4-3.4,1-5,1.8c-1.6,0.8-3,1.7-4.4,2.8c-1.4,1.1-2.7,2.3-3.8,3.7H21c2-3.6,4.7-6.7,8-9.1c3.3-2.4,7-4.2,11-5.2
	c-1.7-0.4-3.4-1-5-1.7c-1.6-0.7-3.1-1.6-4.5-2.6c-1.4-1-2.8-2.1-4-3.3c-1.2-1.2-2.3-2.6-3.3-4c0.5-0.8,1-1.5,1.7-2.2
	c0.6-0.7,1.2-1.4,1.9-2c0.6-0.7,1.3-1.4,2.1-2c0.7-0.6,1.5-1.2,2.2-1.7c0-0.6,0.2-1.2,0.5-1.7c0.3-0.5,0.7-1,1.1-1.4
	c0.4-0.4,0.9-0.8,1.5-1c0.6-0.2,1.2-0.3,1.8-0.4c0.7,0,1.3,0.1,2,0.4c0.6,0.3,1.1,0.6,1.6,1.1c0.5,0.4,0.8,1,1.1,1.6
	c0.4,0.6,0.6,1.3,0.6,2c0,0.7-0.1,1.4-0.4,2c-0.2,0.6-0.6,1.1-1,1.6c-0.5,0.4-1,0.8-1.6,1.1c-0.6,0.2-1.3,0.4-2,0.4h-0.5
	c-0.2,0-0.3,0-0.5-0.1c-0.2,0-0.3-0.1-0.5-0.2c-0.2-0.1-0.4-0.1-0.5-0.2c-0.3,0.2-0.5,0.4-0.8,0.7c-0.3,0.2-0.5,0.4-0.8,0.7
	c-0.3,0.2-0.5,0.4-0.8,0.7c-0.3,0.2-0.5,0.5-0.7,0.7c1,1,2.2,1.9,3.4,2.7c1.2,0.9,2.5,1.6,3.9,2.1c1.4,0.6,2.8,1,4.3,1.3
	c1.5,0.3,3.1,0.5,4.6,0.5c1.6,0,3.1-0.2,4.6-0.5c1.5-0.3,2.9-0.8,4.3-1.3c1.4-0.6,2.7-1.3,3.9-2.1c1.2-0.9,2.3-1.8,3.4-2.7h0.1v-0.9
	c0-0.7,0.1-1.4,0.4-2c0.2-0.6,0.6-1.2,1.1-1.7c0.5-0.5,1.1-0.9,1.7-1.1c1.3-0.5,2.7-0.5,4,0c0.6,0.2,1.2,0.6,1.8,1.1
	c0.5,0.5,0.8,1.1,1.1,1.7c0.6,1.3,0.6,2.7,0,4c-0.3,0.6-0.6,1.2-1.1,1.7c-0.5,0.5-1,0.9-1.7,1.1c-0.6,0.3-1.3,0.4-2,0.4h-0.6
	c-0.1,0-0.2,0-0.3-0.1c-0.1,0-0.2-0.1-0.3-0.1c-0.9,0.9-1.8,1.7-2.8,2.4c-1,0.8-2.1,1.5-3.2,2.1c-1.1,0.7-2.3,1.2-3.5,1.7
	C57.1,76.6,55.9,77,54.6,77.3z"/>
<path id="arch" class="st0" d="M44.1,59.1v-0.9c0-0.4-0.1-0.9-0.1-1.3c0-0.4-0.1-0.9-0.3-1.3c-0.1-0.4-0.3-0.8-0.6-1.2
	c-0.2-0.4-0.5-0.7-0.7-1.1c0.4-0.1,0.8-0.1,1.2-0.2c0.4,0,0.9-0.1,1.3-0.1s0.9-0.1,1.3-0.1c0.4-0.2,0.8-0.3,1.2-0.2
	c1.5,0,3.1,0.1,4.6,0.4c1.5,0.2,3,0.6,4.4,1.1c1.4,0.4,2.8,1,4.1,1.7c1.3,0.7,2.6,1.4,3.8,2.3c-0.4,0.3-0.8,0.6-1.2,1
	c-0.4,0.4-0.7,0.8-0.9,1.2c-0.2,0.4-0.5,0.9-0.7,1.4c-0.2,0.5-0.4,1-0.4,1.5c-0.9-0.7-1.9-1.4-3-2c-1.1-0.5-2.2-1-3.3-1.4
	c-1.2-0.4-2.3-0.7-3.5-0.9c-1.2-0.2-2.5-0.3-3.8-0.3h-1.8c-0.3,0-0.5,0-0.8,0.1C44.6,58.9,44.3,59,44.1,59.1z"/>
<path d="M42.6,66c0-0.7,0.1-1.4,0.4-2c0.3-0.6,0.7-1.1,1.1-1.5c0.5-0.5,1-0.8,1.6-1.1c0.6-0.3,1.3-0.4,2-0.4c0.7,0,1.4,0.1,2,0.4
	c0.6,0.3,1.1,0.6,1.6,1.1c0.4,0.5,0.8,1,1.1,1.6c0.5,1.3,0.5,2.6,0,3.9c-0.2,0.6-0.6,1.2-1.1,1.6c-0.5,0.5-1,0.9-1.7,1.1
	c-0.6,0.3-1.3,0.4-2,0.4c-0.7,0-1.4-0.1-2-0.4c-0.6-0.3-1.1-0.6-1.6-1.1c-0.5-0.5-0.8-1-1.1-1.6C42.7,67.4,42.6,66.7,42.6,66z"/>
<rect x="17" y="48" class="st1" width="189" height="51"/>
</svg>
